<?xml version="1.0" standalone="no"?>
<!DOCTYPE svg PUBLIC "-//W3C//DTD SVG 20010904//EN"
 "http://www.w3.org/TR/2001/REC-SVG-20010904/DTD/svg10.dtd">
<svg version="1.0" xmlns="http://www.w3.org/2000/svg"
 width="4268.000000pt" height="1564.000000pt" viewBox="0 0 4268.000000 1564.000000"
 preserveAspectRatio="xMidYMid meet">

<g transform="translate(0.000000,1564.000000) scale(0.100000,-0.100000)">
<path fill="current" stroke="current" d="M414 15348 c-16 -13 -63 -58 -105 -100 -69 -70 -77 -82 -83 -127 -3
-27 -13 -54 -21 -61 -13 -11 -15 -884 -15 -7345 0 -6506 2 -7334 15 -7345 8
-7 15 -20 15 -30 0 -9 8 -28 18 -41 11 -13 22 -36 25 -50 9 -36 84 -109 119
-116 15 -3 33 -12 39 -19 10 -12 3161 -14 20939 -14 l20927 0 29 22 c59 46
146 143 151 170 3 15 12 33 19 39 12 10 14 1129 14 7384 0 6541 -2 7374 -15
7385 -8 7 -15 20 -15 30 0 9 -8 28 -19 41 -10 13 -21 34 -25 47 -9 29 -49 68
-77 77 -13 4 -38 23 -57 41 l-35 34 -20907 0 -20907 0 -29 -22z m3158 -1066
c18 -18 25 -2317 7 -2338 -16 -19 -2328 -21 -2347 -2 -9 9 -12 278 -11 1152 1
628 4 1152 8 1166 4 14 17 27 31 31 14 4 537 6 1162 6 918 -2 1140 -5 1150
-15z m2720 0 c19 -19 19 -2315 0 -2334 -19 -19 -2355 -19 -2374 0 -10 10 -14
232 -16 1143 -1 621 1 1144 6 1162 5 21 16 34 33 38 13 4 545 6 1181 6 934 -2
1160 -5 1170 -15z m2680 0 c18 -18 25 -2317 7 -2338 -16 -19 -2328 -21 -2347
-2 -9 9 -12 278 -11 1152 1 628 4 1152 8 1166 4 14 17 27 31 31 14 4 537 6
1162 6 918 -2 1140 -5 1150 -15z m2720 0 c19 -19 19 -2315 0 -2334 -19 -19
-2355 -19 -2374 0 -10 10 -14 232 -16 1143 -1 621 1 1144 6 1162 5 21 16 34
33 38 13 4 545 6 1181 6 934 -2 1160 -5 1170 -15z m2680 0 c18 -18 25 -2317 7
-2338 -16 -19 -2328 -21 -2347 -2 -9 9 -12 278 -11 1152 1 628 4 1152 8 1166
4 14 17 27 31 31 14 4 537 6 1162 6 918 -2 1140 -5 1150 -15z m2720 0 c19 -19
19 -2315 0 -2334 -19 -19 -2355 -19 -2374 0 -10 10 -14 232 -16 1143 -1 621 1
1144 6 1162 5 21 16 34 33 38 13 4 545 6 1181 6 934 -2 1160 -5 1170 -15z
m2680 0 c18 -18 25 -2317 7 -2338 -16 -19 -2328 -21 -2347 -2 -9 9 -12 278
-11 1152 1 628 4 1152 8 1166 4 14 17 27 31 31 14 4 537 6 1162 6 918 -2 1140
-5 1150 -15z m2720 0 c19 -19 19 -2315 0 -2334 -19 -19 -2355 -19 -2374 0 -10
10 -14 232 -16 1143 -1 621 1 1144 6 1162 5 21 16 34 33 38 13 4 545 6 1181 6
934 -2 1160 -5 1170 -15z m2680 0 c18 -18 25 -2317 7 -2338 -16 -19 -2328 -21
-2347 -2 -9 9 -12 278 -11 1152 1 628 4 1152 8 1166 4 14 17 27 31 31 14 4
537 6 1162 6 918 -2 1140 -5 1150 -15z m2720 0 c19 -19 19 -2315 0 -2334 -19
-19 -2355 -19 -2374 0 -10 10 -14 232 -16 1143 -1 621 1 1144 6 1162 5 21 16
34 33 38 13 4 545 6 1181 6 934 -2 1160 -5 1170 -15z m2680 0 c18 -18 25
-2317 7 -2338 -16 -19 -2328 -21 -2347 -2 -9 9 -12 278 -11 1152 1 628 4 1152
8 1166 4 14 17 27 31 31 14 4 537 6 1162 6 918 -2 1140 -5 1150 -15z m2720 0
c11 -11 13 -233 13 -1166 l0 -1153 -34 -34 -34 -34 -1132 0 -1132 0 -34 34
-34 34 -3 1129 c-1 621 1 1143 6 1161 5 21 16 34 33 38 13 4 545 6 1181 6 934
-2 1160 -5 1170 -15z m2680 0 c10 -10 14 -237 16 -1171 l2 -1158 -37 -29 -38
-29 -1110 0 -1110 0 -37 29 -38 28 1 1142 c1 627 4 1152 8 1166 4 14 17 27 31
31 14 4 537 6 1162 6 918 -2 1140 -5 1150 -15z m5400 0 c10 -10 14 -237 16
-1171 l2 -1158 -37 -29 -38 -29 -2471 0 -2471 0 -34 34 -34 34 -3 1129 c-1
621 1 1143 6 1161 5 21 16 34 33 38 13 4 1148 6 2521 6 2034 -2 2499 -4 2510
-15z m-36419 -2696 l37 -29 -2 -1158 c-2 -934 -6 -1161 -16 -1171 -19 -19
-3715 -19 -3734 0 -10 10 -14 236 -16 1163 -1 632 1 1164 6 1182 5 21 16 34
33 38 13 4 841 6 1839 6 l1815 -2 38 -29z m2718 -5 l34 -34 0 -1131 0 -1131
-29 -38 -29 -37 -1158 2 c-934 2 -1161 6 -1171 16 -10 10 -14 237 -16 1171
l-2 1158 33 26 c18 13 41 27 52 30 11 3 522 4 1136 3 l1116 -1 34 -34z m2682
5 l37 -29 -2 -1158 c-2 -934 -6 -1161 -16 -1171 -11 -11 -233 -13 -1166 -13
l-1153 0 -34 34 -34 34 0 1132 0 1132 31 30 c16 17 39 33 50 36 10 3 521 4
1134 3 l1115 -1 38 -29z m2718 -5 l34 -34 0 -1131 0 -1131 -29 -38 -29 -37
-1158 2 c-934 2 -1161 6 -1171 16 -10 10 -14 237 -16 1171 l-2 1158 33 26 c18
13 41 27 52 30 11 3 522 4 1136 3 l1116 -1 34 -34z m2682 5 l37 -29 -2 -1158
c-2 -934 -6 -1161 -16 -1171 -11 -11 -233 -13 -1166 -13 l-1153 0 -34 34 -34
34 0 1132 0 1132 31 30 c16 17 39 33 50 36 10 3 521 4 1134 3 l1115 -1 38 -29z
m2718 -5 l34 -34 0 -1131 0 -1131 -29 -38 -29 -37 -1158 2 c-934 2 -1161 6
-1171 16 -10 10 -14 237 -16 1171 l-2 1158 33 26 c18 13 41 27 52 30 11 3 522
4 1136 3 l1116 -1 34 -34z m2682 5 l37 -29 -2 -1158 c-2 -934 -6 -1161 -16
-1171 -11 -11 -233 -13 -1166 -13 l-1153 0 -34 34 -34 34 0 1132 0 1132 31 30
c16 17 39 33 50 36 10 3 521 4 1134 3 l1115 -1 38 -29z m2718 -5 l34 -34 0
-1131 0 -1131 -29 -38 -29 -37 -1158 2 c-934 2 -1161 6 -1171 16 -10 10 -14
237 -16 1171 l-2 1158 33 26 c18 13 41 27 52 30 11 3 522 4 1136 3 l1116 -1
34 -34z m2682 5 l37 -29 -2 -1158 c-2 -934 -6 -1161 -16 -1171 -11 -11 -233
-13 -1166 -13 l-1153 0 -34 34 -34 34 0 1132 0 1132 31 30 c16 17 39 33 50 36
10 3 521 4 1134 3 l1115 -1 38 -29z m2718 -5 l34 -34 0 -1131 0 -1131 -29 -38
-29 -37 -1158 2 c-934 2 -1161 6 -1171 16 -10 10 -14 237 -16 1171 l-2 1158
33 26 c18 13 41 27 52 30 11 3 522 4 1136 3 l1116 -1 34 -34z m2682 5 l37 -29
-2 -1158 c-2 -934 -6 -1161 -16 -1171 -11 -11 -233 -13 -1166 -13 l-1153 0
-34 34 -34 34 0 1132 0 1132 31 30 c16 17 39 33 50 36 10 3 521 4 1134 3
l1115 -1 38 -29z m2718 -5 l34 -34 0 -1131 0 -1131 -29 -38 -29 -37 -1158 2
c-934 2 -1161 6 -1171 16 -10 10 -14 237 -16 1171 l-2 1158 33 26 c18 13 41
27 52 30 11 3 522 4 1136 3 l1116 -1 34 -34z m2682 5 l37 -29 -2 -1158 c-2
-934 -6 -1161 -16 -1171 -11 -11 -233 -13 -1166 -13 l-1153 0 -34 34 -34 34 0
1132 0 1132 31 30 c16 17 39 33 50 36 10 3 521 4 1134 3 l1115 -1 38 -29z
m4019 16 c19 -19 19 -2355 0 -2374 -19 -19 -3635 -19 -3654 0 -10 10 -14 237
-16 1171 l-2 1158 33 26 c18 13 41 27 52 30 11 3 820 4 1797 3 1443 -1 1779
-3 1790 -14z m-35720 -2720 c11 -11 13 -233 13 -1166 l0 -1153 -34 -34 -34
-34 -2151 0 -2151 0 -37 29 -38 28 1 1142 c1 627 4 1152 8 1166 4 14 17 27 31
31 14 4 1005 6 2202 6 1771 -2 2179 -4 2190 -15z m2680 0 c10 -10 14 -237 16
-1171 l2 -1158 -37 -29 -38 -29 -1110 0 -1110 0 -31 24 c-18 13 -42 37 -55 55
l-24 31 0 1110 0 1110 29 38 29 37 1158 -2 c934 -2 1161 -6 1171 -16z m2720 0
c11 -11 13 -233 13 -1166 l0 -1153 -34 -34 -34 -34 -1132 0 -1132 0 -34 34
-34 34 -3 1129 c-1 621 1 1143 6 1161 5 21 16 34 33 38 13 4 545 6 1181 6 934
-2 1160 -5 1170 -15z m2680 0 c10 -10 14 -237 16 -1171 l2 -1158 -37 -29 -38
-29 -1110 0 -1110 0 -31 24 c-18 13 -42 37 -55 55 l-24 31 0 1110 0 1110 29
38 29 37 1158 -2 c934 -2 1161 -6 1171 -16z m2720 0 c11 -11 13 -233 13 -1166
l0 -1153 -34 -34 -34 -34 -1132 0 -1132 0 -34 34 -34 34 -3 1129 c-1 621 1
1143 6 1161 5 21 16 34 33 38 13 4 545 6 1181 6 934 -2 1160 -5 1170 -15z
m2680 0 c10 -10 14 -237 16 -1171 l2 -1158 -37 -29 -38 -29 -1110 0 -1110 0
-37 29 -38 28 0 1162 c0 899 3 1165 12 1174 19 19 2321 13 2340 -6z m2720 0
c11 -11 13 -233 13 -1166 l0 -1153 -34 -34 -34 -34 -1132 0 -1132 0 -34 34
-34 34 -3 1129 c-1 621 1 1143 6 1161 5 21 16 34 33 38 13 4 545 6 1181 6 934
-2 1160 -5 1170 -15z m2680 0 c10 -10 14 -237 16 -1171 l2 -1158 -37 -29 -38
-29 -1110 0 -1110 0 -37 29 -38 28 0 1162 c0 899 3 1165 12 1174 19 19 2321
13 2340 -6z m2720 0 c11 -11 13 -233 13 -1166 l0 -1153 -34 -34 -34 -34 -1132
0 -1132 0 -34 34 -34 34 -3 1129 c-1 621 1 1143 6 1161 5 21 16 34 33 38 13 4
545 6 1181 6 934 -2 1160 -5 1170 -15z m2680 0 c10 -10 14 -237 16 -1171 l2
-1158 -37 -29 -38 -29 -1110 0 -1110 0 -37 29 -38 28 0 1162 c0 899 3 1165 12
1174 19 19 2321 13 2340 -6z m2720 0 c11 -11 13 -233 13 -1166 l0 -1153 -34
-34 -34 -34 -1132 0 -1132 0 -34 34 -34 34 -3 1129 c-1 621 1 1143 6 1161 5
21 16 34 33 38 13 4 545 6 1181 6 934 -2 1160 -5 1170 -15z m2680 0 c10 -10
14 -237 16 -1171 l2 -1158 -37 -29 -38 -29 -1110 0 -1110 0 -37 29 -38 28 0
1162 c0 899 3 1165 12 1174 19 19 2321 13 2340 -6z m6040 0 c10 -10 14 -237
16 -1171 l2 -1158 -37 -29 -38 -29 -2791 0 -2791 0 -34 34 -34 34 -3 1129 c-1
621 1 1143 6 1161 5 21 16 34 33 38 13 4 1292 6 2841 6 2296 -2 2819 -4 2830
-15z m-34381 -2701 l34 -34 0 -1132 0 -1132 -34 -34 -34 -34 -2853 0 c-2327 0
-2855 2 -2866 13 -10 10 -14 236 -16 1163 -1 632 1 1164 6 1182 5 21 16 34 33
38 13 4 1300 6 2860 6 l2836 -2 34 -34z m2682 5 l37 -29 -2 -1158 c-2 -934 -6
-1161 -16 -1171 -10 -10 -237 -14 -1171 -16 l-1158 -2 -29 37 -29 38 0 1131 0
1131 31 30 c16 17 39 33 50 36 10 3 521 4 1134 3 l1115 -1 38 -29z m2718 -5
l34 -34 0 -1132 0 -1132 -34 -34 -34 -34 -1153 0 c-933 0 -1155 2 -1166 13
-10 10 -14 236 -16 1163 -1 632 1 1164 6 1182 5 21 16 34 33 38 13 4 535 6
1160 6 l1136 -2 34 -34z m2682 5 l37 -29 -2 -1158 c-2 -934 -6 -1161 -16
-1171 -10 -10 -237 -14 -1171 -16 l-1158 -2 -29 37 -29 38 0 1131 0 1131 31
30 c16 17 39 33 50 36 10 3 521 4 1134 3 l1115 -1 38 -29z m2718 -5 l34 -34 0
-1132 0 -1132 -34 -34 -34 -34 -1153 0 c-933 0 -1155 2 -1166 13 -10 10 -14
236 -16 1163 -1 632 1 1164 6 1182 5 21 16 34 33 38 13 4 535 6 1160 6 l1136
-2 34 -34z m2682 5 l37 -29 -2 -1158 c-2 -934 -6 -1161 -16 -1171 -11 -11
-233 -13 -1166 -13 l-1153 0 -34 34 -34 34 0 1132 0 1132 31 30 c16 17 39 33
50 36 10 3 521 4 1134 3 l1115 -1 38 -29z m2718 -5 l34 -34 0 -1132 0 -1132
-34 -34 -34 -34 -1153 0 c-933 0 -1155 2 -1166 13 -10 10 -14 236 -16 1163 -1
632 1 1164 6 1182 5 21 16 34 33 38 13 4 535 6 1160 6 l1136 -2 34 -34z m2682
5 l37 -29 -2 -1158 c-2 -934 -6 -1161 -16 -1171 -11 -11 -233 -13 -1166 -13
l-1153 0 -34 34 -34 34 0 1132 0 1132 31 30 c16 17 39 33 50 36 10 3 521 4
1134 3 l1115 -1 38 -29z m2718 -5 l34 -34 0 -1132 0 -1132 -34 -34 -34 -34
-1153 0 c-933 0 -1155 2 -1166 13 -10 10 -14 236 -16 1163 -1 632 1 1164 6
1182 5 21 16 34 33 38 13 4 535 6 1160 6 l1136 -2 34 -34z m2682 5 l37 -29 -2
-1158 c-2 -934 -6 -1161 -16 -1171 -11 -11 -233 -13 -1166 -13 l-1153 0 -34
34 -34 34 0 1132 0 1132 31 30 c16 17 39 33 50 36 10 3 521 4 1134 3 l1115 -1
38 -29z m2718 -5 l34 -34 0 -1132 0 -1132 -34 -34 -34 -34 -1153 0 c-933 0
-1155 2 -1166 13 -10 10 -14 236 -16 1163 -1 632 1 1164 6 1182 5 21 16 34 33
38 13 4 535 6 1160 6 l1136 -2 34 -34z m7381 21 c19 -19 19 -2355 0 -2374 -11
-11 -653 -13 -3506 -13 l-3493 0 -34 34 -34 34 0 1132 0 1132 31 30 c16 17 39
33 50 36 10 3 1584 4 3496 3 2838 -1 3479 -3 3490 -14z m-37240 -2720 c11 -11
13 -233 13 -1166 l0 -1153 -34 -34 -34 -34 -1391 0 -1391 0 -37 29 -38 28 1
1142 c1 627 4 1152 8 1166 4 14 17 27 31 31 14 4 663 6 1442 6 1148 -2 1419
-4 1430 -15z m3240 0 c11 -11 13 -233 13 -1166 l0 -1153 -34 -34 -34 -34
-1391 0 -1391 0 -37 29 -38 28 1 1142 c1 627 4 1152 8 1166 4 14 17 27 31 31
14 4 663 6 1442 6 1148 -2 1419 -4 1430 -15z m3240 0 c11 -11 13 -233 13
-1166 l0 -1153 -34 -34 -34 -34 -1391 0 -1391 0 -37 29 -38 28 1 1142 c1 627
4 1152 8 1166 4 14 17 27 31 31 14 4 663 6 1442 6 1148 -2 1419 -4 1430 -15z
m17800 0 c10 -10 14 -237 16 -1171 l2 -1158 -37 -29 -38 -29 -8670 0 -8670 0
-37 29 -38 28 1 1142 c1 627 4 1152 8 1166 4 14 17 27 31 31 14 4 3939 6 8722
6 7120 -2 8699 -4 8710 -15z m3240 0 c10 -10 14 -237 16 -1171 l2 -1158 -37
-29 -38 -29 -1391 0 -1391 0 -34 34 -34 34 -3 1129 c-1 621 1 1143 6 1161 5
21 16 34 33 38 13 4 662 6 1441 6 1148 -2 1419 -4 1430 -15z m3240 0 c10 -10
14 -237 16 -1171 l2 -1158 -37 -29 -38 -29 -1391 0 -1391 0 -34 34 -34 34 -3
1129 c-1 621 1 1143 6 1161 5 21 16 34 33 38 13 4 662 6 1441 6 1148 -2 1419
-4 1430 -15z m3240 0 c10 -10 14 -237 16 -1171 l2 -1158 -37 -29 -38 -29
-1391 0 -1391 0 -34 34 -34 34 -3 1129 c-1 621 1 1143 6 1161 5 21 16 34 33
38 13 4 662 6 1441 6 1148 -2 1419 -4 1430 -15z m3240 0 c10 -10 14 -237 16
-1171 l2 -1158 -37 -29 -38 -29 -1391 0 -1391 0 -34 34 -34 34 -3 1129 c-1
621 1 1143 6 1161 5 21 16 34 33 38 13 4 662 6 1441 6 1148 -2 1419 -4 1430
-15z"/>
</g>
</svg>
